HIERARCHY
ROOT Hips
{
	OFFSET 0.00000 0.00000 0.00000
	CHANNELS 6 Xposition Yposition Zposition Zrotation Yrotation Xrotation 
	JOINT LHipJoint
	{
		OFFSET 0 0 0
		CHANNELS 3 Zrotation Yrotation Xrotation
		JOINT LeftUpLeg
		{
			OFFSET 1.30186 -1.90722 0.65024
			CHANNELS 3 Zrotation Yrotation Xrotation
			JOINT LeftLeg
			{
				OFFSET 2.56413 -7.04489 0.00000
				CHANNELS 3 Zrotation Yrotation Xrotation
				JOINT LeftFoot
				{
					OFFSET 2.79321 -7.67428 0.00000
					CHANNELS 3 Zrotation Yrotation Xrotation
					JOINT LeftToeBase
					{
						OFFSET 0.15723 -0.43198 2.08537
						CHANNELS 3 Zrotation Yrotation Xrotation
						End Site
						{
							OFFSET 0.00000 -0.00000 1.07411
						}
					}
				}
			}
		}
	}
	JOINT RHipJoint
	{
		OFFSET 0 0 0
		CHANNELS 3 Zrotation Yrotation Xrotation
		JOINT RightUpLeg
		{
			OFFSET -1.28627 -1.90723 0.65024
			CHANNELS 3 Zrotation Yrotation Xrotation
			JOINT RightLeg
			{
				OFFSET -2.56567 -7.04913 0.00000
				CHANNELS 3 Zrotation Yrotation Xrotation
				JOINT RightFoot
				{
					OFFSET -2.75597 -7.57198 0.00000
					CHANNELS 3 Zrotation Yrotation Xrotation
					JOINT RightToeBase
					{
						OFFSET -0.17500 -0.48081 2.22901
						CHANNELS 3 Zrotation Yrotation Xrotation
						End Site
						{
							OFFSET -0.00000 -0.00000 1.14762
						}
					}
				}
			}
		}
	}
	JOINT LowerBack
	{
		OFFSET 0 0 0
		CHANNELS 3 Zrotation Yrotation Xrotation
		JOINT Spine
		{
			OFFSET -0.04522 2.07467 -0.16566
			CHANNELS 3 Zrotation Yrotation Xrotation
			JOINT Spine1
			{
				OFFSET -0.01178 2.08825 -0.05393
				CHANNELS 3 Zrotation Yrotation Xrotation
				JOINT Neck
				{
					OFFSET 0 0 0
					CHANNELS 3 Zrotation Yrotation Xrotation
					JOINT Neck1
					{
						OFFSET -0.05182 1.80489 0.16014
						CHANNELS 3 Zrotation Yrotation Xrotation
						JOINT Head
						{
							OFFSET 0.14739 1.78840 -0.33342
							CHANNELS 3 Zrotation Yrotation Xrotation
							End Site
							{
								OFFSET 0.04364 1.83899 -0.13460
							}
						}
					}
				}
				JOINT LeftShoulder
				{
					OFFSET 0 0 0
					CHANNELS 3 Zrotation Yrotation Xrotation
					JOINT LeftArm
					{
						OFFSET 3.01264 1.29090 -0.06579
						CHANNELS 3 Zrotation Yrotation Xrotation
						JOINT LeftForeArm
						{
							OFFSET 5.55680 -0.00000 0.00000
							CHANNELS 3 Zrotation Yrotation Xrotation
							JOINT LeftHand
							{
								OFFSET 3.63979 -0.00000 -0.00000
								CHANNELS 3 Zrotation Yrotation Xrotation
								JOINT LeftFingerBase
								{
									OFFSET 0 0 0
									CHANNELS 3 Zrotation Yrotation Xrotation
									JOINT LeftHandIndex1
									{
										OFFSET 0.56942 -0.00000 -0.00000
										CHANNELS 3 Zrotation Yrotation Xrotation
										End Site
										{
											OFFSET 0.45908 -0.00000 -0.00000
										}
									}
								}
								JOINT LThumb
								{
									OFFSET 0 0 0
									CHANNELS 3 Zrotation Yrotation Xrotation
									End Site
									{
										OFFSET 0.46609 -0.00000 0.46609
									}
								}
							}
						}
					}
				}
				JOINT RightShoulder
				{
					OFFSET 0 0 0
					CHANNELS 3 Zrotation Yrotation Xrotation
					JOINT RightArm
					{
						OFFSET -3.15796 1.37283 -0.36748
						CHANNELS 3 Zrotation Yrotation Xrotation
						JOINT RightForeArm
						{
							OFFSET -5.34339 -0.00000 0.00000
							CHANNELS 3 Zrotation Yrotation Xrotation
							JOINT RightHand
							{
								OFFSET -3.65101 -0.00000 -0.00000
								CHANNELS 3 Zrotation Yrotation Xrotation
								JOINT RightFingerBase
								{
									OFFSET 0 0 0
									CHANNELS 3 Zrotation Yrotation Xrotation
									JOINT RightHandIndex1
									{
										OFFSET -0.69425 -0.00000 -0.00000
										CHANNELS 3 Zrotation Yrotation Xrotation
										End Site
										{
											OFFSET -0.55972 -0.00000 -0.00000
										}
									}
								}
								JOINT RThumb
								{
									OFFSET 0 0 0
									CHANNELS 3 Zrotation Yrotation Xrotation
									End Site
									{
										OFFSET -0.56827 -0.00000 0.56827
									}
								}
							}
						}
					}
				}
			}
		}
	}
}
MOTION
Frames: 14
Frame Time: 0.0166666
10.8590 18.4238 -12.8860 4.2503 -2.9278 0.9929 0.0000 0.0000 0.0000 -22.8916 -12.1151 6.6560 0.1999 2.8788 7.9414 0.2219 10.1277 -17.5382 0.2127 -2.9689 -8.1922 0.0000 0.0000 0.0000 8.2072 14.8109 -1.1266 -0.4519 -4.3126 11.9579 0.4484 -12.8521 -10.2743 -0.0793 -1.8170 5.0003 -3.9487 -0.1102 -0.9998 -0.0126 -0.0851 0.6987 2.1988 -0.0776 1.2841 -7.6862 -7.9281 -9.1400 9.0763 -11.3955 17.3306 3.0924 -5.1942 7.8113 -0.0000 -0.0000 0.0000 -10.8733 0.4492 -35.1780 50.3070 -53.1186 -26.4195 -0.0000 0.0000 -1.7107 29.1224 14.6286 8.0089 -7.1250 0.0000 -0.0000 1.5188 46.6096 0.0603 -0.0000 -0.0000 0.0000 11.9817 2.9386 -59.8457 -48.7571 52.4818 -25.1849 0.0000 -0.0000 -9.6281 -28.0202 32.7964 -16.0795 7.1250 -0.0000 -0.0000 2.2697 6.1216 2.5007
10.8500 18.4203 -12.8796 4.3539 -2.8997 1.0724 0.0000 0.0000 0.0000 -22.9287 -12.0388 6.4104 0.2107 2.9555 8.1550 0.2458 9.8708 -17.5382 0.2418 -3.1643 -8.7366 0.0000 0.0000 0.0000 8.0743 14.6846 -1.2067 -0.4447 -4.2785 11.8615 0.4300 -12.6697 -10.2968 -0.0691 -1.6964 4.6672 -4.2938 -0.0779 -1.2536 -0.1624 -0.0153 0.9527 2.2397 -0.0573 1.6838 -6.9557 -8.0287 -9.8528 8.7952 -11.5890 17.6355 2.8325 -5.2340 7.9960 -0.0000 -0.0000 0.0000 -11.1531 0.8558 -35.7895 50.5085 -53.1985 -26.5808 -0.0000 0.0000 -2.9980 31.9114 13.5782 8.3176 -7.1250 0.0000 -0.0000 4.2669 45.8183 0.0863 -0.0000 -0.0000 0.0000 13.1885 2.3622 -59.3910 -50.0831 53.0290 -26.2405 0.0000 -0.0000 -9.8826 -27.8879 31.5777 -15.4891 7.1250 -0.0000 -0.0000 2.1114 4.8151 2.2827
10.8411 18.4130 -12.8697 4.4326 -2.8943 0.8542 0.0000 0.0000 0.0000 -23.0156 -11.7676 6.5897 0.2106 2.9543 8.1514 0.2576 9.6167 -17.3976 0.2852 -3.4348 -9.4918 0.0000 0.0000 0.0000 8.0596 14.3219 -0.9774 -0.4352 -4.2332 11.7338 0.4102 -12.4046 -10.1314 -0.0704 -1.7120 4.7103 -4.4849 0.0292 -0.9387 -0.2509 0.1156 0.9478 2.2586 0.0105 1.4927 -7.0408 -8.0901 -9.9372 8.9822 -11.7465 18.1719 2.8829 -5.2832 8.2206 -0.0000 0.0000 0.0000 -12.2197 0.7167 -35.6727 51.0487 -53.4098 -27.0139 -0.0000 0.0000 -3.3998 26.4711 12.9047 6.3456 -7.1250 0.0000 -0.0000 -0.7756 44.3351 0.0127 -0.0000 0.0000 0.0000 14.4726 1.6979 -58.6162 -51.4809 53.5756 -27.3613 0.0000 -0.0000 -9.4133 -27.9271 31.6693 -15.5519 7.1250 -0.0000 -0.0000 2.1066 4.9212 2.2810
10.8286 18.4159 -12.8773 3.8521 -3.2109 0.8948 0.0000 0.0000 0.0000 -22.3238 -11.2840 6.4163 0.2116 2.9613 8.1709 0.2950 9.2379 -17.4435 0.2744 -3.3693 -9.3088 0.0000 0.0000 0.0000 8.7943 14.9458 -0.8188 -0.4271 -4.1942 11.6236 0.4419 -12.6925 -9.9927 -0.0380 -1.2583 3.4597 -4.0418 0.0570 -0.8588 -0.1389 0.1377 0.8488 2.1257 0.0301 1.3444 -7.3936 -7.8543 -8.9831 9.6371 -11.5075 17.7728 3.2224 -5.1775 7.9563 0.0000 0.0000 0.0000 -12.9869 1.2101 -35.3812 50.9933 -53.3883 -26.9694 -0.0000 0.0000 -2.8794 25.8949 13.1949 6.3234 -7.1250 0.0000 -0.0000 -1.3446 44.5830 0.0138 0.0000 0.0000 0.0000 15.7202 1.8468 -57.9643 -52.5698 53.9808 -28.2398 0.0000 -0.0000 -9.0016 -27.5521 32.6865 -15.7353 7.1250 -0.0000 -0.0000 2.5077 5.8840 2.7541
10.8218 18.4100 -12.8711 4.1977 -3.2675 0.7941 0.0000 0.0000 0.0000 -22.6570 -11.0596 6.3162 0.2225 3.0366 8.3806 0.3018 9.1019 -17.3812 0.2239 -3.0456 -8.4057 0.0000 0.0000 0.0000 8.4094 14.5993 -0.8193 -0.4261 -4.1894 11.6101 0.4242 -12.4285 -9.7543 -0.0538 -1.4972 4.1180 -4.5739 0.0161 -1.0571 -0.1686 0.1035 0.8990 2.3931 0.0035 1.5098 -7.6826 -7.7690 -8.4285 9.6859 -11.3909 17.8515 3.3197 -5.1544 7.8909 -0.0000 0.0000 0.0000 -13.7868 1.6609 -35.1255 51.1177 -53.4365 -27.0693 -0.0000 0.0000 -4.5486 30.6342 14.3814 8.3676 -7.1250 0.0000 -0.0000 2.9908 46.5518 0.1146 -0.0000 0.0000 0.0000 16.4479 1.4488 -56.3436 -52.7167 54.0341 -28.3587 0.0000 -0.0000 -9.5813 -28.7433 32.4237 -16.3873 7.1250 -0.0000 -0.0000 1.7961 5.9266 1.9729
10.8098 18.4100 -12.8806 4.2170 -3.5670 0.8603 0.0000 0.0000 0.0000 -22.5797 -10.6115 6.1264 0.2145 2.9814 8.2269 0.2816 9.1087 -17.1377 0.2920 -3.4748 -9.6035 0.0000 0.0000 0.0000 8.3936 14.8279 -1.1571 -0.4508 -4.3074 11.9431 0.3862 -12.0968 -9.9872 -0.0182 -0.8701 2.3915 -4.8161 0.1214 -1.2090 -0.2071 0.2559 0.8509 2.4932 0.0775 1.5337 -7.4860 -7.7605 -7.9520 9.6109 -11.4184 17.8201 3.2784 -5.1779 7.7806 0.0000 0.0000 0.0000 -14.1994 1.7305 -34.7369 50.8128 -53.3181 -26.8246 -0.0000 0.0000 -4.6911 28.6140 15.3572 8.2210 -7.1250 0.0000 -0.0000 0.9462 47.3499 0.0549 0.0000 0.0000 0.0000 17.3795 1.2828 -54.9029 -52.7785 54.0564 -28.4087 0.0000 -0.0000 -9.7707 -29.3620 32.2114 -16.6934 7.1250 -0.0000 -0.0000 1.4105 5.8726 1.5478
10.8043 18.4131 -12.8806 4.0579 -3.6151 0.6709 0.0000 0.0000 0.0000 -22.3855 -10.3142 6.2224 0.2179 3.0052 8.2933 0.3002 8.8474 -17.0904 0.2581 -3.2684 -9.0270 0.0000 0.0000 0.0000 8.6480 14.5594 -1.0069 -0.4520 -4.3132 11.9596 0.3611 -11.7966 -9.9198 -0.0125 -0.7233 1.9877 -4.7417 0.1490 -1.2192 -0.2709 0.2960 0.9645 2.3872 0.0940 1.6538 -7.3495 -7.7107 -7.8910 9.7276 -11.4195 18.0456 3.2972 -5.1574 7.8428 0.0000 0.0000 0.0000 -14.5797 2.2474 -33.4520 51.0047 -53.3928 -26.9786 -0.0000 0.0000 -6.2285 28.1856 15.7888 8.2956 -7.1250 0.0000 -0.0000 0.4758 47.7653 0.0325 0.0000 0.0000 0.0000 18.4729 0.8987 -52.9592 -52.8318 54.0757 -28.4518 0.0000 -0.0000 -11.1457 -29.3311 31.7874 -16.4880 7.1250 -0.0000 -0.0000 1.3435 5.4186 1.4648
10.7992 18.4059 -12.8854 3.9329 -3.7208 0.5512 0.0000 0.0000 0.0000 -22.2294 -9.9875 6.2389 0.2196 3.0170 8.3260 0.2982 8.7522 -16.9649 0.2541 -3.2435 -8.9574 0.0000 0.0000 0.0000 8.8448 14.7715 -0.8358 -0.4463 -4.2864 11.8838 0.3922 -12.1183 -9.8616 -0.0216 -0.9490 2.6085 -4.6835 0.1488 -1.1047 -0.2499 0.2888 0.9957 2.3755 0.0911 1.6223 -7.6138 -7.7473 -8.0190 9.8098 -11.4749 18.3826 3.3554 -5.1831 8.0036 0.0000 0.0000 0.0000 -15.8187 2.3588 -32.6799 51.6089 -53.6241 -27.4644 -0.0000 0.0000 -6.9880 29.2227 15.2953 8.3944 -7.1250 0.0000 -0.0000 1.5415 47.3729 0.0903 0.0000 0.0000 0.0000 19.3275 0.7807 -51.0849 -52.4319 53.9304 -28.1283 0.0000 -0.0000 -11.4491 -29.0944 31.5884 -16.2505 7.1250 -0.0000 -0.0000 1.4369 5.1452 1.5605
10.7935 18.4082 -12.8959 3.7149 -3.9148 0.4684 0.0000 0.0000 0.0000 -21.9215 -9.6495 6.0389 0.2348 3.1187 8.6095 0.3208 8.4826 -16.9682 0.2032 -2.9029 -8.0084 0.0000 0.0000 0.0000 9.1661 14.9179 -0.6058 -0.4265 -4.1913 11.6155 0.4144 -12.2636 -9.5662 -0.0255 -1.0301 2.8316 -4.6869 0.0511 -1.0387 -0.1240 0.1552 1.0695 2.5037 0.0212 1.6710 -7.5479 -7.5438 -8.0860 9.7357 -11.1872 18.4361 3.3518 -5.0457 7.9970 0.0000 -0.0000 0.0000 -17.2174 2.4766 -32.2143 51.9030 -53.7347 -27.7013 -0.0000 0.0000 -7.7972 26.2126 14.4543 7.0060 -7.1250 0.0000 -0.0000 -1.2211 46.0063 -0.0303 0.0000 -0.0000 0.0000 20.3692 1.4754 -49.8776 -52.5978 53.9910 -28.2625 0.0000 -0.0000 -11.6110 -26.6656 32.7469 -15.1977 7.1250 -0.0000 -0.0000 3.0108 5.7183 3.3001
10.7897 18.4126 -12.9025 3.4544 -4.0162 0.4764 0.0000 0.0000 0.0000 -21.5991 -9.4253 5.8003 0.2485 3.2076 8.8573 0.3560 8.1014 -17.0212 0.1810 -2.7400 -7.5558 0.0000 0.0000 0.0000 9.4960 15.0980 -0.4284 -0.4079 -4.0998 11.3576 0.4421 -12.4751 -9.2774 -0.0070 -0.5394 1.4821 -4.4748 -0.1542 -1.0138 -0.0885 -0.1252 1.0311 2.4144 -0.1151 1.6385 -7.4392 -7.3723 -8.1354 9.4816 -10.9314 18.6486 3.2783 -4.9340 8.0303 -0.0000 0.0000 0.0000 -18.5672 3.5126 -30.9051 53.0969 -54.1706 -28.6666 -0.0000 0.0000 -8.4486 16.4311 11.2236 3.2852 -7.1250 0.0000 -0.0000 -9.5231 41.4786 0.8356 -0.0000 0.0000 0.0000 21.4694 2.2898 -48.0247 -53.0113 54.1401 -28.5972 0.0000 -0.0000 -11.3605 -27.5487 32.0569 -15.4759 7.1250 -0.0000 -0.0000 2.3908 5.2279 2.6008
10.7930 18.4127 -12.9128 3.6834 -4.0299 0.4582 0.0000 0.0000 0.0000 -21.8388 -9.2311 5.7371 0.2448 3.1839 8.7912 0.3544 7.9546 -16.8558 0.1821 -2.7483 -7.5788 0.0000 0.0000 0.0000 9.1999 14.9024 -0.5053 -0.4021 -4.0713 11.2774 0.4305 -12.3182 -9.1708 -0.0390 -1.2745 3.5044 -4.4878 -0.0491 -0.7009 -0.2387 -0.0051 0.8280 2.2702 -0.0427 1.2446 -7.8036 -7.5335 -7.8726 9.6511 -11.1630 18.7631 3.3758 -5.0608 8.0741 0.0000 0.0000 0.0000 -19.8997 3.1481 -29.5799 53.9316 -54.4631 -29.3446 -0.0000 0.0000 -9.3308 27.6393 14.0488 7.2445 -7.1250 0.0000 -0.0000 0.1766 45.7528 0.0033 0.0000 0.0000 0.0000 22.5636 1.9334 -46.4092 -53.3439 54.2582 -28.8670 0.0000 -0.0000 -11.3783 -27.4429 33.4992 -15.9931 7.1250 -0.0000 -0.0000 2.7247 6.6984 3.0272
10.7917 18.4155 -12.9215 3.6541 -4.3470 0.4087 0.0000 0.0000 0.0000 -21.7851 -8.6507 5.8382 0.2228 3.0386 8.3862 0.3446 7.8133 -16.5949 0.1281 -2.3074 -6.3559 0.0000 0.0000 0.0000 9.2303 14.6035 -0.7085 -0.4102 -4.1116 11.3910 0.3752 -11.6920 -9.1460 -0.0124 -0.7204 1.9797 -4.4435 -0.0266 -0.5526 -0.3173 0.0186 0.8768 2.1649 -0.0301 1.2097 -7.6902 -7.3958 -7.9686 9.8684 -11.0007 18.4841 3.4450 -4.9604 7.9892 -0.0000 0.0000 0.0000 -21.1015 3.1782 -29.0866 54.9285 -54.7997 -30.1576 -0.0000 0.0000 -8.3031 29.5953 14.6636 8.1818 -7.1250 0.0000 -0.0000 1.9681 46.7181 0.0835 -0.0000 0.0000 0.0000 23.7278 2.1896 -44.8304 -54.5777 54.6828 -29.8711 0.0000 -0.0000 -11.4353 -28.2840 33.2403 -16.4335 7.1250 -0.0000 -0.0000 2.2115 6.6541 2.4546
10.7848 18.4187 -12.9313 3.8333 -4.5994 0.4358 0.0000 0.0000 0.0000 -21.9175 -8.1981 5.7935 0.2068 2.9280 8.0784 0.3317 7.7347 -16.3533 0.1841 -2.7637 -7.6215 0.0000 0.0000 0.0000 9.0258 14.9098 -0.7685 -0.4105 -4.1129 11.3945 0.3591 -11.5984 -9.4181 -0.0062 -0.5089 1.3984 -4.8495 -0.0150 -0.8311 -0.2969 0.0616 1.1033 2.4143 -0.0253 1.5968 -7.5798 -7.4586 -8.4566 9.6203 -11.0335 18.5718 3.3232 -4.9711 8.0895 0.0000 -0.0000 0.0000 -22.5087 2.6830 -29.1570 55.4285 -54.9633 -30.5665 -0.0000 0.0000 -7.7564 33.6353 15.6029 10.1452 -7.1250 0.0000 -0.0000 5.8438 48.4345 0.4967 0.0000 -0.0000 0.0000 24.8057 2.5608 -43.7219 -56.0473 55.1612 -31.0738 0.0000 -0.0000 -11.2040 -28.7620 33.9213 -17.0303 7.1250 -0.0000 -0.0000 2.0880 7.4919 2.3439
10.7810 18.4133 -12.9377 3.9132 -4.7767 0.5022 0.0000 0.0000 0.0000 -21.9653 -7.8381 5.7134 0.1941 2.8370 7.8253 0.3080 7.7201 -16.0299 0.2665 -3.3208 -9.1731 0.0000 0.0000 0.0000 8.9223 14.9826 -0.9181 -0.4090 -4.1055 11.3737 0.3867 -11.7361 -8.8641 -0.0167 -0.8334 2.2906 -5.0106 -0.0733 -0.8743 -0.3866 -0.0093 1.1203 2.4106 -0.0635 1.6445 -7.2084 -7.4203 -8.6842 9.4382 -10.9868 18.5374 3.2001 -4.9330 8.0828 0.0000 0.0000 0.0000 -23.6462 2.7294 -28.5672 56.5205 -55.3091 -31.4626 -0.0000 0.0000 -8.2998 32.9504 14.7992 9.4009 -7.1250 0.0000 -0.0000 5.2070 47.3880 0.3076 0.0000 0.0000 0.0000 26.1844 2.8369 -42.4052 -58.2206 55.8168 -32.8648 0.0000 -0.0000 -11.1120 -28.8798 33.6158 -16.9806 7.1250 -0.0000 -0.0000 1.9607 7.2070 2.1924
